<?xml version="1.0" encoding="UTF-8"?>
<svg id="Layer_1" data-name="Layer 1" xmlns="http://www.w3.org/2000/svg" xmlns:xlink="http://www.w3.org/1999/xlink" viewBox="8 8 64 64">
  <defs>
    <style>
      .cls-1 {
        fill: url(#linear-gradient-2);
      }

      .cls-2 {
        fill: #fff;
      }

      .cls-3 {
        fill: url(#linear-gradient);
      }
    </style>
    <linearGradient id="linear-gradient" x1="19.91" y1="52.11" x2="60.09" y2="52.11" gradientUnits="userSpaceOnUse">
      <stop offset="0" stop-color="#eac45f"/>
      <stop offset="1" stop-color="#e2a022"/>
    </linearGradient>
    <linearGradient id="linear-gradient-2" y1="28.48" y2="28.48" xlink:href="#linear-gradient"/>
  </defs>
  <rect class="cls-3" x="19.91" y="50.8" width="40.17" height="2.62" rx=".68" ry=".68"/>
  <rect class="cls-1" x="19.91" y="27.17" width="40.17" height="2.62" rx=".68" ry=".68"/>
  <g>
    <path class="cls-2" d="M25.45,43.75v-9.49h3.16c.95,0,1.77.09,2.46.28.7.19,1.29.49,1.78.91.46.39.81.88,1.05,1.47.24.59.36,1.29.36,2.1s-.12,1.5-.36,2.08c-.24.59-.59,1.08-1.05,1.47-.49.42-1.08.72-1.78.91-.7.19-1.52.28-2.46.28h-3.16ZM28.55,42.03c.7,0,1.28-.06,1.76-.18.48-.12.86-.32,1.16-.61.49-.47.73-1.22.73-2.25,0-.52-.06-.97-.18-1.33-.12-.36-.3-.66-.55-.9-.3-.29-.68-.49-1.16-.61-.48-.12-1.06-.18-1.76-.18h-1.13v6.06h1.13Z"/>
    <path class="cls-2" d="M37.36,41.09c0,.34.08.6.23.76.1.11.25.18.42.22.18.04.4.06.67.06.24,0,.47-.02.71-.05.23-.03.43-.08.58-.14.08-.03.12-.07.13-.11,0-.05.01-.1.01-.17v-4.9h1.85v6.99h-1.4l-.24-.6-.4.21c-.32.17-.61.3-.87.38-.25.08-.52.12-.79.12-.4,0-.77-.06-1.1-.18-.33-.12-.62-.29-.87-.52-.24-.23-.43-.51-.57-.85-.13-.34-.2-.73-.2-1.17v-4.38h1.85v4.32Z"/>
    <path class="cls-2" d="M47.93,38.28c-.33-.04-.64-.07-.92-.09-.28-.02-.51-.03-.7-.03-.44,0-.76.03-.97.1-.21.07-.32.2-.32.39,0,.15.08.26.24.33.16.07.37.14.65.21l.93.23c.4.11.75.21,1.05.33.3.11.54.25.73.42.19.16.33.36.42.58.09.22.14.49.14.81,0,.69-.24,1.24-.72,1.67-.48.43-1.2.64-2.16.64-.26,0-.53-.02-.8-.06-.28-.04-.55-.09-.82-.16-.27-.07-.52-.15-.77-.24-.24-.1-.46-.2-.65-.3l.39-1.13.77.14c.42.08.78.13,1.08.17.3.04.57.06.81.06.37,0,.66-.06.87-.17.21-.11.31-.28.31-.5,0-.18-.06-.32-.19-.4s-.37-.17-.74-.26l-.9-.21c-.35-.09-.67-.19-.96-.3s-.53-.25-.73-.42c-.2-.16-.35-.36-.46-.58-.11-.22-.16-.49-.16-.79,0-.33.07-.63.21-.89.14-.26.35-.47.61-.64.26-.17.57-.3.93-.39.36-.09.75-.14,1.18-.14s.9.05,1.36.14c.46.1.88.23,1.26.4l-.29,1.16-.69-.07Z"/>
    <path class="cls-2" d="M55.58,43c-.31.24-.68.44-1.11.61-.43.17-.86.25-1.27.25-.36,0-.68-.05-.96-.15-.28-.1-.51-.25-.7-.44-.42-.41-.63-1.02-.63-1.82v-3.25h-1.26v-1.15l1.26-.27v-2.05h1.85v2.02h2.32v1.45h-2.32v3.18c0,.31.06.52.19.64.14.14.35.21.63.21.12,0,.27-.01.44-.04.17-.03.33-.06.48-.09l.66-.14.43,1.03Z"/>
  </g>
</svg>