<?xml version="1.0" encoding="UTF-8"?>
<svg id="Layer_1" data-name="Layer 1" xmlns="http://www.w3.org/2000/svg" xmlns:xlink="http://www.w3.org/1999/xlink" viewBox="8 8 64 64">
  <defs>
    <style>
      .cls-1 {
        fill: url(#linear-gradient-2);
      }

      .cls-2 {
        fill: #fff;
      }

      .cls-3 {
        fill: url(#linear-gradient);
      }
    </style>
    <linearGradient id="linear-gradient" x1="19.92" y1="52.11" x2="60.08" y2="52.11" gradientUnits="userSpaceOnUse">
      <stop offset="0" stop-color="#d4d4d4"/>
      <stop offset="1" stop-color="#aaa"/>
    </linearGradient>
    <linearGradient id="linear-gradient-2" y1="28.48" y2="28.48" xlink:href="#linear-gradient"/>
  </defs>
  <g>
    <path class="cls-2" d="M36.46,34.26v9.51h-1.92v-6.51h-.03l-2.47,3.17h-1.18c-.09,0-.15,0-.2-.03-.05-.02-.1-.06-.14-.13l-2.38-3.01h-.03v6.51h-1.91v-9.51h1.59c.11,0,.18.01.22.04s.1.09.16.17l3.14,3.93h.09l3.08-3.93c.07-.09.12-.14.17-.17.04-.03.12-.04.22-.04h1.58Z"/>
    <path class="cls-2" d="M38.3,33.83h1.46c.15,0,.26.03.31.08.05.05.08.15.08.28v1.46h-1.85v-1.82ZM38.3,36.77h1.85v7h-1.85v-7Z"/>
    <path class="cls-2" d="M46.14,38.29c-.33-.04-.64-.07-.92-.09-.28-.02-.51-.03-.7-.03-.44,0-.76.03-.97.1-.21.07-.32.2-.32.39,0,.15.08.26.24.33.16.07.38.14.65.22l.93.23c.4.11.75.22,1.05.33.3.11.54.25.73.42.19.16.33.36.42.58.09.22.14.49.14.81,0,.69-.24,1.25-.72,1.67-.48.43-1.2.64-2.16.64-.26,0-.53-.02-.8-.06-.28-.04-.55-.09-.82-.16-.27-.07-.52-.15-.77-.24-.24-.1-.46-.2-.65-.3l.39-1.13.77.14c.42.08.78.13,1.08.17.3.04.57.06.81.06.37,0,.66-.06.87-.17.21-.11.31-.28.31-.5,0-.18-.06-.32-.19-.4s-.38-.17-.74-.26l-.9-.22c-.35-.09-.67-.19-.96-.3s-.53-.25-.73-.42c-.2-.16-.35-.36-.46-.58-.11-.22-.16-.49-.16-.8,0-.33.07-.63.22-.89.14-.26.35-.47.61-.65.26-.17.57-.3.93-.39.36-.09.75-.14,1.18-.14s.9.05,1.36.14c.46.1.88.23,1.26.4l-.29,1.16-.69-.07Z"/>
    <path class="cls-2" d="M53.8,43.02c-.31.24-.68.44-1.11.61-.44.17-.86.25-1.27.25-.36,0-.68-.05-.96-.15-.28-.1-.51-.25-.7-.44-.42-.41-.63-1.02-.63-1.82v-3.25h-1.26v-1.15l1.26-.27v-2.05h1.85v2.02h2.32v1.45h-2.32v3.18c0,.31.06.52.19.65.14.14.35.22.63.22.12,0,.27-.01.44-.04.17-.03.33-.06.48-.09l.66-.14.43,1.03Z"/>
  </g>
  <rect class="cls-3" x="19.92" y="50.8" width="40.17" height="2.62" rx=".68" ry=".68"/>
  <rect class="cls-1" x="19.92" y="27.17" width="40.17" height="2.62" rx=".68" ry=".68"/>
</svg>